<svg width="565" height="80" viewBox="0 0 565 80" fill="none" xmlns="http://www.w3.org/2000/svg">
<g clip-path="url(#clip0_33_242)">
<rect width="565" height="80" fill="white"/>
<path d="M36.56 76.36C33.06 76.36 30.0267 75.6367 27.46 74.19C24.8467 72.7433 22.84 70.83 21.44 68.45C20.04 66.1167 19.34 63.6433 19.34 61.03C19.34 57.9967 20.1333 55.3367 21.72 53.05C23.3067 50.7167 25.4067 48.7567 28.02 47.17C30.6333 45.5367 33.48 44.3233 36.56 43.53C39.6867 42.69 42.7667 42.27 45.8 42.27C47.4333 42.27 49.2767 42.48 51.33 42.9C53.3833 43.2733 55.2967 43.9033 57.07 44.79C58.89 45.6767 60.22 46.8667 61.06 48.36C61.2 48.5467 61.2 48.92 61.06 49.48C60.92 49.9933 60.6867 50.4833 60.36 50.95C60.0333 51.37 59.59 51.58 59.03 51.58C58.5167 51.58 57.9333 51.3 57.28 50.74C56.02 49.62 54.6667 48.85 53.22 48.43C51.82 48.01 50.3033 47.8 48.67 47.8C46.15 47.8 43.63 48.08 41.11 48.64C38.59 49.2 36.2567 50.04 34.11 51.16C32.01 52.28 30.33 53.68 29.07 55.36C27.81 56.9933 27.18 58.9067 27.18 61.1C27.18 62.6867 27.6 64.18 28.44 65.58C29.28 66.98 30.47 68.1 32.01 68.94C33.55 69.78 35.3933 70.2 37.54 70.2C40.3867 70.2 43.6767 69.2433 47.41 67.33C51.1433 65.4633 55.1567 62.22 59.45 57.6C65.4233 51.2067 70.93 44.3933 75.97 37.16C81.01 29.88 85.91 22.5767 90.67 15.25C89.2233 14.4567 87.4267 13.7567 85.28 13.15C83.1333 12.4967 81.0333 12.17 78.98 12.17C75.6667 12.17 73.1 13.15 71.28 15.11C69.5067 17.07 68.62 19.7067 68.62 23.02C68.62 23.9067 68.3867 24.5833 67.92 25.05C67.5 25.5167 66.9867 25.75 66.38 25.75C65.7267 25.75 65.0967 25.4 64.49 24.7C63.93 24 63.65 22.8567 63.65 21.27C63.65 19.03 64.0467 17 64.84 15.18C65.6333 13.36 66.4967 11.89 67.43 10.77C68.9233 9.04333 70.9067 7.80667 73.38 7.06C75.8533 6.31333 78.49 5.94 81.29 5.94C83.9033 5.94 86.4933 6.22 89.06 6.78C91.6267 7.29333 93.96 8.04 96.06 9.02C98.2067 9.95333 99.91 11.0267 101.17 12.24C102.477 13.4533 103.13 14.76 103.13 16.16C103.13 16.3467 103.107 16.5333 103.06 16.72C103.06 16.86 103.037 17.0233 102.99 17.21C102.757 18.0967 102.383 18.7267 101.87 19.1C101.357 19.4267 100.773 19.59 100.12 19.59C99.3733 19.59 98.6033 19.4267 97.81 19.1C97.0167 18.7267 96.3167 18.3067 95.71 17.84C95.5233 17.7 95.43 17.5367 95.43 17.35C95.43 17.07 95.5467 16.8367 95.78 16.65C96.06 16.4633 96.3167 16.4867 96.55 16.72C96.97 17.0467 97.5067 17.3967 98.16 17.77C98.8133 18.0967 99.4433 18.26 100.05 18.26C100.423 18.26 100.75 18.1667 101.03 17.98C101.31 17.7467 101.52 17.3733 101.66 16.86C101.707 16.7667 101.73 16.65 101.73 16.51C101.73 16.37 101.73 16.2533 101.73 16.16C101.73 15.04 101.123 13.9667 99.91 12.94C98.6967 11.8667 97.0633 10.91 95.01 10.07C93.0033 9.18333 90.7867 8.50666 88.36 8.04C85.9333 7.52666 83.5067 7.27 81.08 7.27C78.5133 7.27 76.11 7.62 73.87 8.32C71.6767 8.97333 69.9033 10.07 68.55 11.61C67.6633 12.6367 66.8467 13.99 66.1 15.67C65.4 17.35 65.05 19.2167 65.05 21.27C65.05 22.3433 65.19 23.1367 65.47 23.65C65.75 24.1633 66.0533 24.42 66.38 24.42C66.94 24.42 67.22 23.9533 67.22 23.02C67.22 19.38 68.2467 16.44 70.3 14.2C72.3533 11.9133 75.2467 10.77 78.98 10.77C81.36 10.77 83.74 11.1433 86.12 11.89C88.5467 12.6367 90.5067 13.4533 92 14.34C92.42 14.5733 92.49 14.9233 92.21 15.39C91.8367 15.95 91.1367 17.0467 90.11 18.68C89.0833 20.2667 87.7767 22.25 86.19 24.63C84.65 26.9633 82.9 29.5533 80.94 32.4C79.0267 35.2 76.9267 38.14 74.64 41.22C72.4 44.2533 70.0667 47.2633 67.64 50.25C65.26 53.19 62.8567 55.9667 60.43 58.58C55.9967 63.3867 51.82 66.7467 47.9 68.66C43.98 70.62 40.5033 71.6 37.47 71.6C35.09 71.6 33.0133 71.11 31.24 70.13C29.5133 69.15 28.1833 67.8433 27.25 66.21C26.27 64.6233 25.78 62.92 25.78 61.1C25.78 58.6267 26.4567 56.48 27.81 54.66C29.1633 52.84 30.96 51.3233 33.2 50.11C35.4867 48.8967 37.9833 47.9867 40.69 47.38C43.3967 46.7733 46.08 46.47 48.74 46.47C50.5133 46.47 52.1933 46.7033 53.78 47.17C55.3667 47.59 56.86 48.43 58.26 49.69C58.54 49.97 58.7267 50.1333 58.82 50.18C59.0067 50.18 59.1933 50.04 59.38 49.76C59.5667 49.48 59.6833 49.2467 59.73 49.06L59.8 48.99C59.1933 47.9633 58.3067 47.1233 57.14 46.47C56.02 45.77 54.7833 45.2333 53.43 44.86C52.0767 44.44 50.7467 44.16 49.44 44.02C48.18 43.8333 47.0833 43.74 46.15 43.74C43.3033 43.74 40.3867 44.1133 37.4 44.86C34.46 45.6067 31.73 46.7267 29.21 48.22C26.69 49.6667 24.66 51.4633 23.12 53.61C21.5333 55.7567 20.74 58.2533 20.74 61.1C20.74 63.48 21.3933 65.72 22.7 67.82C23.96 69.92 25.78 71.6233 28.16 72.93C30.54 74.2367 33.34 74.89 36.56 74.89C40.1533 74.89 44.19 73.8867 48.67 71.88C53.15 69.8733 57.9333 66.4667 63.02 61.66C66.7067 58.16 70.3467 54.17 73.94 49.69C77.5333 45.1633 81.01 40.3567 84.37 35.27C87.73 30.1833 90.88 25.0733 93.82 19.94C93.96 19.7067 94.17 19.59 94.45 19.59C94.6833 19.59 94.8933 19.7067 95.08 19.94C95.2667 20.1267 95.2667 20.36 95.08 20.64C92.14 25.7733 88.9667 30.9067 85.56 36.04C82.2 41.1267 78.7 45.9567 75.06 50.53C71.42 55.0567 67.7333 59.0933 64 62.64C58.7733 67.5867 53.8267 71.11 49.16 73.21C44.4933 75.31 40.2933 76.36 36.56 76.36ZM103.663 46.61C103.383 46.61 103.15 46.4933 102.963 46.26C102.823 46.0267 102.847 45.77 103.033 45.49C104.433 43.4367 105.133 41.4533 105.133 39.54C105.133 38.1867 104.713 37.09 103.873 36.25C103.08 35.3633 101.867 34.92 100.233 34.92C97.8065 34.92 95.4265 35.9933 93.0932 38.14C90.8065 40.24 88.4499 42.8767 86.0232 46.05C85.8832 46.19 85.7432 46.26 85.6032 46.26C85.3699 46.26 85.1832 46.12 85.0432 45.84C84.8565 45.56 84.8565 45.28 85.0432 45C86.6299 42.9 88.2165 40.9867 89.8032 39.26C91.3899 37.5333 93.0232 36.1567 94.7032 35.13C96.4299 34.1033 98.2265 33.59 100.093 33.59C102.427 33.59 104.083 34.15 105.063 35.27C106.043 36.39 106.533 37.7433 106.533 39.33C106.533 40.4967 106.323 41.6867 105.903 42.9C105.483 44.1133 104.9 45.2567 104.153 46.33C104.013 46.5167 103.85 46.61 103.663 46.61ZM91.0632 55.29C90.0832 55.29 89.3132 54.9633 88.7532 54.31C88.2399 53.61 87.9832 52.7233 87.9832 51.65C87.9832 50.25 88.4032 48.71 89.2432 47.03C90.0832 45.35 91.1565 43.7633 92.4632 42.27C93.8165 40.73 95.2165 39.47 96.6632 38.49C98.1099 37.51 99.4165 37.02 100.583 37.02C101.237 37.02 101.563 37.2533 101.563 37.72C101.563 37.9067 101.493 38.0933 101.353 38.28C101.213 38.42 101.027 38.4667 100.793 38.42C99.8132 38.3267 98.6699 38.7233 97.3632 39.61C96.1032 40.4967 94.8665 41.64 93.6532 43.04C92.4399 44.44 91.4132 45.9333 90.5732 47.52C89.7799 49.06 89.3832 50.46 89.3832 51.72C89.3832 52.3267 89.4999 52.84 89.7332 53.26C89.9665 53.68 90.4099 53.89 91.0632 53.89C91.8099 53.89 92.6032 53.6567 93.4432 53.19C94.2832 52.6767 95.0532 52.07 95.7532 51.37C96.4532 50.67 96.9665 50.0167 97.2932 49.41C97.4332 49.1767 97.6199 49.06 97.8532 49.06C98.0865 49.06 98.2965 49.1767 98.4832 49.41C98.6699 49.5967 98.6699 49.83 98.4832 50.11C98.0632 50.81 97.4565 51.58 96.6632 52.42C95.8699 53.2133 94.9832 53.89 94.0032 54.45C93.0232 55.01 92.0432 55.29 91.0632 55.29ZM102.823 49.69C101.283 49.69 99.9532 49.2233 98.8332 48.29C97.7132 47.3567 97.1532 46.0967 97.1532 44.51C97.1532 43.95 97.2232 43.3667 97.3632 42.76C97.5499 42.1067 97.8065 41.43 98.1332 40.73C98.2732 40.45 98.4832 40.31 98.7632 40.31C98.9965 40.31 99.1832 40.4033 99.3232 40.59C99.5099 40.7767 99.5332 41.01 99.3932 41.29C99.1132 41.85 98.9032 42.3867 98.7632 42.9C98.6699 43.4133 98.6232 43.9033 98.6232 44.37C98.6232 45.63 99.0432 46.61 99.8832 47.31C100.723 47.9633 101.727 48.29 102.893 48.29C103.92 48.29 104.97 48.0333 106.043 47.52C107.117 47.0067 108.097 46.19 108.983 45.07C109.123 44.8833 109.287 44.79 109.473 44.79C109.707 44.79 109.917 44.93 110.103 45.21C110.29 45.4433 110.29 45.6767 110.103 45.91C109.03 47.2167 107.84 48.1733 106.533 48.78C105.273 49.3867 104.037 49.69 102.823 49.69ZM90.9232 59.7C88.9165 59.7 87.2365 59.0467 85.8832 57.74C84.5299 56.3867 83.9465 54.8 84.1332 52.98C84.1332 52.5133 84.3665 52.28 84.8332 52.28C85.0199 52.28 85.2065 52.3733 85.3932 52.56C85.5332 52.7 85.5799 52.8867 85.5332 53.12C85.4399 54.3333 85.9065 55.5233 86.9332 56.69C88.0065 57.81 89.3599 58.37 90.9932 58.37C92.0665 58.37 93.2099 58.0433 94.4232 57.39C95.6365 56.7367 96.8499 55.64 98.0632 54.1C98.0632 54.1 98.2032 53.9133 98.4832 53.54C98.8099 53.1667 99.1599 52.77 99.5332 52.35C99.9065 51.8833 100.163 51.51 100.303 51.23C100.443 50.95 100.63 50.81 100.863 50.81C101.097 50.81 101.283 50.9267 101.423 51.16C101.61 51.3467 101.633 51.58 101.493 51.86C101.213 52.42 100.84 52.9567 100.373 53.47C99.9065 53.9833 99.4865 54.4967 99.1132 55.01C97.8065 56.69 96.4299 57.9033 94.9832 58.65C93.5832 59.35 92.2299 59.7 90.9232 59.7ZM109.527 46.26C109.294 46.26 109.107 46.12 108.967 45.84C108.781 45.56 108.781 45.3033 108.967 45.07C110.134 43.7633 111.511 42.13 113.097 40.17C114.731 38.1633 116.504 36.04 118.417 33.8C120.377 31.5133 122.407 29.2733 124.507 27.08C126.607 24.84 128.731 22.81 130.877 20.99C133.024 19.17 135.124 17.7233 137.177 16.65C139.277 15.53 141.261 14.97 143.127 14.97C143.687 14.97 144.364 15.0867 145.157 15.32C145.997 15.5533 146.744 15.95 147.397 16.51C148.051 17.0233 148.377 17.7467 148.377 18.68C148.377 19.52 148.144 20.1267 147.677 20.5C147.211 20.8267 146.651 21.0367 145.997 21.13C145.344 21.2233 144.714 21.27 144.107 21.27C142.707 21.27 141.261 21.6433 139.767 22.39C138.274 23.09 136.827 24 135.427 25.12C134.027 26.24 132.721 27.4533 131.507 28.76C130.294 30.02 129.267 31.21 128.427 32.33C128.287 32.5167 128.101 32.61 127.867 32.61C127.634 32.61 127.424 32.4933 127.237 32.26C127.097 32.0267 127.121 31.77 127.307 31.49C128.147 30.37 129.174 29.1567 130.387 27.85C131.647 26.4967 133.024 25.2133 134.517 24C136.057 22.7867 137.644 21.8067 139.277 21.06C140.911 20.2667 142.521 19.87 144.107 19.87C144.527 19.87 145.111 19.8467 145.857 19.8C146.604 19.7067 146.977 19.3333 146.977 18.68C146.977 18.0267 146.534 17.49 145.647 17.07C144.807 16.6033 143.967 16.37 143.127 16.37C141.401 16.37 139.534 16.93 137.527 18.05C135.567 19.1233 133.537 20.57 131.437 22.39C129.337 24.21 127.237 26.2167 125.137 28.41C123.084 30.6033 121.101 32.82 119.187 35.06C117.321 37.2533 115.594 39.3067 114.007 41.22C112.467 43.1333 111.161 44.72 110.087 45.98C109.947 46.1667 109.761 46.26 109.527 46.26ZM133.957 54.17C133.164 54.17 132.464 53.9133 131.857 53.4C131.297 52.8867 131.017 52.1867 131.017 51.3C131.017 50.6467 131.344 49.69 131.997 48.43C132.697 47.17 133.467 45.8167 134.307 44.37C135.194 42.8767 135.964 41.5233 136.617 40.31C137.317 39.05 137.667 38.14 137.667 37.58C137.667 36.5067 137.201 35.69 136.267 35.13C135.381 34.57 134.354 34.29 133.187 34.29C131.414 34.29 129.641 34.78 127.867 35.76C126.094 36.6933 124.437 37.86 122.897 39.26C121.404 40.66 120.097 42.06 118.977 43.46C118.837 43.6467 118.651 43.74 118.417 43.74C118.184 43.74 117.974 43.6233 117.787 43.39C117.647 43.11 117.694 42.8533 117.927 42.62C119.047 41.2667 120.401 39.8433 121.987 38.35C123.621 36.81 125.394 35.5267 127.307 34.5C129.221 33.4267 131.181 32.89 133.187 32.89C134.027 32.89 134.891 33.0533 135.777 33.38C136.711 33.66 137.481 34.15 138.087 34.85C138.741 35.55 139.067 36.46 139.067 37.58C139.067 38.28 138.717 39.2833 138.017 40.59C137.364 41.8967 136.594 43.2967 135.707 44.79C134.867 46.2367 134.097 47.5667 133.397 48.78C132.744 49.9467 132.417 50.7867 132.417 51.3C132.417 52.28 132.931 52.77 133.957 52.77C135.031 52.77 136.151 52.3033 137.317 51.37C138.484 50.4367 139.581 49.3633 140.607 48.15C141.634 46.89 142.427 45.8633 142.987 45.07C143.127 44.8833 143.291 44.79 143.477 44.79C143.711 44.79 143.921 44.9067 144.107 45.14C144.341 45.3733 144.341 45.63 144.107 45.91C143.454 46.8433 142.567 47.9633 141.447 49.27C140.374 50.5767 139.184 51.72 137.877 52.7C136.571 53.68 135.264 54.17 133.957 54.17ZM111.837 59.21C110.857 59.21 110.134 58.8833 109.667 58.23C109.247 57.5767 109.037 56.8767 109.037 56.13C109.037 55.3833 109.247 54.4967 109.667 53.47C110.087 52.4433 110.554 51.44 111.067 50.46C111.627 49.4333 112.071 48.57 112.397 47.87C112.537 47.59 112.747 47.45 113.027 47.45C113.261 47.45 113.447 47.5667 113.587 47.8C113.774 47.9867 113.797 48.22 113.657 48.5C113.377 49.06 112.981 49.83 112.467 50.81C111.954 51.79 111.487 52.77 111.067 53.75C110.647 54.73 110.437 55.5233 110.437 56.13C110.437 57.25 110.904 57.81 111.837 57.81C112.771 57.81 113.634 57.2033 114.427 55.99C115.267 54.7767 116.201 53.2367 117.227 51.37C118.254 49.5033 119.467 47.5667 120.867 45.56C122.267 43.5533 123.971 41.7333 125.977 40.1C127.984 38.4667 130.434 37.2767 133.327 36.53H133.537C134.004 36.53 134.237 36.7633 134.237 37.23C134.237 37.5567 134.051 37.7667 133.677 37.86C130.784 38.6067 128.264 39.9367 126.117 41.85C124.017 43.7167 122.151 45.91 120.517 48.43C118.931 50.9033 117.437 53.4467 116.037 56.06C115.711 56.7133 115.197 57.4133 114.497 58.16C113.797 58.86 112.911 59.21 111.837 59.21ZM130.387 59.28C129.454 59.28 128.474 59.1633 127.447 58.93C126.467 58.65 125.627 58.16 124.927 57.46C124.274 56.7133 123.947 55.6633 123.947 54.31C123.947 52.8167 124.344 51.2067 125.137 49.48C125.931 47.7533 126.864 46.0967 127.937 44.51C129.011 42.9233 129.967 41.6167 130.807 40.59C130.947 40.4033 131.134 40.31 131.367 40.31C131.601 40.31 131.811 40.45 131.997 40.73C132.184 41.01 132.161 41.2667 131.927 41.5C131.041 42.5267 130.084 43.81 129.057 45.35C128.031 46.89 127.144 48.4533 126.397 50.04C125.697 51.6267 125.347 53.05 125.347 54.31C125.347 55.6633 125.814 56.5967 126.747 57.11C127.727 57.6233 128.941 57.88 130.387 57.88C131.881 57.88 133.351 57.5767 134.797 56.97C136.244 56.3633 137.551 55.6167 138.717 54.73C138.811 54.6367 138.951 54.59 139.137 54.59C139.604 54.59 139.837 54.8233 139.837 55.29C139.837 55.5233 139.744 55.71 139.557 55.85C138.251 56.83 136.827 57.6467 135.287 58.3C133.747 58.9533 132.114 59.28 130.387 59.28ZM148.89 54.87C147.77 54.87 147.024 54.4267 146.65 53.54C146.324 52.6067 146.16 51.8367 146.16 51.23C146.16 50.0633 146.557 48.6867 147.35 47.1C148.144 45.5133 149.17 43.95 150.43 42.41C151.69 40.87 153.044 39.5867 154.49 38.56C155.937 37.5333 157.314 37.02 158.62 37.02C159.274 37.02 159.6 37.2533 159.6 37.72C159.6 37.9067 159.53 38.0933 159.39 38.28C159.25 38.42 159.064 38.4667 158.83 38.42C157.804 38.3267 156.637 38.7467 155.33 39.68C154.07 40.5667 152.834 41.7333 151.62 43.18C150.454 44.58 149.474 46.0033 148.68 47.45C147.934 48.8967 147.56 50.1567 147.56 51.23C147.56 51.8833 147.677 52.42 147.91 52.84C148.144 53.26 148.47 53.47 148.89 53.47C149.684 53.47 150.594 53.0033 151.62 52.07C152.694 51.09 153.79 49.8767 154.91 48.43C156.03 46.9367 157.104 45.3967 158.13 43.81C159.204 42.1767 160.137 40.7067 160.93 39.4C161.77 38.0467 162.4 37.0433 162.82 36.39C163.707 35.0833 164.594 34.1733 165.48 33.66C166.367 33.1 167.184 32.82 167.93 32.82C168.77 32.82 169.447 33.0767 169.96 33.59C170.52 34.1033 170.8 34.7567 170.8 35.55C170.8 36.25 170.544 36.9967 170.03 37.79C169.657 38.35 169.05 39.2833 168.21 40.59C167.37 41.85 166.507 43.2267 165.62 44.72C164.734 46.1667 163.987 47.4967 163.38 48.71C162.727 50.11 162.4 51.23 162.4 52.07C162.4 53.0033 162.867 53.47 163.8 53.47C164.64 53.47 165.574 53.19 166.6 52.63C167.674 52.07 168.747 51.3467 169.82 50.46C170.894 49.5733 171.897 48.6633 172.83 47.73C173.764 46.75 174.534 45.8633 175.14 45.07C175.28 44.8833 175.444 44.79 175.63 44.79C175.91 44.79 176.12 44.93 176.26 45.21C176.447 45.4433 176.447 45.6767 176.26 45.91C175.654 46.7967 174.814 47.7533 173.74 48.78C172.714 49.8067 171.594 50.7867 170.38 51.72C169.167 52.6533 167.954 53.4233 166.74 54.03C165.527 54.59 164.454 54.87 163.52 54.87C162.634 54.87 161.98 54.6133 161.56 54.1C161.187 53.5867 161 52.9333 161 52.14C161 51.16 161.28 50.04 161.84 48.78C162.447 47.4733 163.194 46.05 164.08 44.51C165.014 42.9233 165.924 41.4533 166.81 40.1C167.744 38.7 168.444 37.65 168.91 36.95C169.237 36.4833 169.4 36.0167 169.4 35.55C169.4 34.6633 168.934 34.22 168 34.22C167.487 34.22 166.857 34.4533 166.11 34.92C165.41 35.3867 164.687 36.1567 163.94 37.23C162.914 38.77 161.77 40.5433 160.51 42.55C159.297 44.5567 158.06 46.4467 156.8 48.22C155.54 49.9467 154.234 51.4867 152.88 52.84C151.574 54.1933 150.244 54.87 148.89 54.87ZM143.57 46.26C143.337 46.26 143.15 46.1433 143.01 45.91C142.824 45.6767 142.824 45.42 143.01 45.14C143.804 44.02 144.714 42.8067 145.74 41.5C146.814 40.1467 148.004 38.8867 149.31 37.72C150.617 36.5067 152.017 35.5267 153.51 34.78C155.004 33.9867 156.567 33.59 158.2 33.59C158.714 33.59 159.227 33.66 159.74 33.8C160.254 33.8933 160.744 34.0333 161.21 34.22C161.49 34.36 161.63 34.57 161.63 34.85C161.63 35.0367 161.537 35.2233 161.35 35.41C161.164 35.55 160.93 35.5733 160.65 35.48C160.65 35.48 160.58 35.4567 160.44 35.41C160.3 35.3633 160.114 35.3167 159.88 35.27C159.647 35.1767 159.39 35.1067 159.11 35.06C158.83 35.0133 158.527 34.99 158.2 34.99C156.287 34.99 154.467 35.5733 152.74 36.74C151.014 37.9067 149.404 39.33 147.91 41.01C146.464 42.69 145.204 44.3233 144.13 45.91C143.99 46.1433 143.804 46.26 143.57 46.26ZM161.28 59.35C159.18 59.35 157.664 58.79 156.73 57.67C155.844 56.5033 155.4 55.2433 155.4 53.89C155.4 52.77 155.68 51.6967 156.24 50.67C156.38 50.4367 156.59 50.32 156.87 50.32C157.104 50.32 157.29 50.4367 157.43 50.67C157.617 50.8567 157.64 51.09 157.5 51.37C157.034 52.21 156.8 53.05 156.8 53.89C156.8 54.9167 157.15 55.85 157.85 56.69C158.55 57.53 159.694 57.95 161.28 57.95C163.054 57.95 164.734 57.5767 166.32 56.83C167.954 56.0367 169.494 55.1033 170.94 54.03C171.034 53.9367 171.174 53.89 171.36 53.89C171.827 53.89 172.06 54.1233 172.06 54.59C172.06 54.8233 171.967 55.01 171.78 55.15C170.287 56.27 168.677 57.25 166.95 58.09C165.224 58.93 163.334 59.35 161.28 59.35ZM147.91 59.28C146.37 59.28 144.994 58.7667 143.78 57.74C142.614 56.7133 142.077 55.1267 142.17 52.98C142.17 52.56 142.404 52.35 142.87 52.35C143.057 52.35 143.244 52.42 143.43 52.56C143.57 52.6533 143.617 52.8167 143.57 53.05C143.524 54.73 143.944 55.9667 144.83 56.76C145.717 57.5067 146.744 57.88 147.91 57.88C148.844 57.88 149.777 57.67 150.71 57.25C151.644 56.7833 152.414 56.13 153.02 55.29C153.16 55.1033 153.347 55.01 153.58 55.01C153.814 55.01 154.024 55.1267 154.21 55.36C154.397 55.5933 154.374 55.85 154.14 56.13C153.394 57.1567 152.46 57.95 151.34 58.51C150.22 59.0233 149.077 59.28 147.91 59.28ZM175.699 46.26C175.466 46.26 175.279 46.12 175.139 45.84C174.953 45.56 174.953 45.3033 175.139 45.07C176.586 43.4367 177.823 41.99 178.849 40.73C179.923 39.4233 180.926 38.1167 181.859 36.81C182.839 35.5033 183.889 34.0567 185.009 32.47C185.523 31.77 186.106 31.28 186.759 31C187.413 30.6733 188.043 30.51 188.649 30.51C189.629 30.51 190.469 30.79 191.169 31.35C191.916 31.91 192.289 32.54 192.289 33.24C192.289 33.66 192.126 34.0567 191.799 34.43C191.659 34.57 191.496 34.64 191.309 34.64C191.076 34.64 190.866 34.5233 190.679 34.29C190.539 34.01 190.586 33.73 190.819 33.45C190.866 33.4033 190.889 33.31 190.889 33.17C190.889 33.03 190.819 32.8667 190.679 32.68C190.539 32.4933 190.213 32.3067 189.699 32.12C189.373 31.98 189.023 31.91 188.649 31.91C188.229 31.91 187.786 32.0267 187.319 32.26C186.899 32.4467 186.503 32.7967 186.129 33.31C184.963 34.8967 183.889 36.3433 182.909 37.65C181.976 38.9567 180.996 40.2633 179.969 41.57C178.943 42.8767 177.706 44.3467 176.259 45.98C176.119 46.1667 175.933 46.26 175.699 46.26ZM200.129 54.17C199.383 54.17 198.683 54.0067 198.029 53.68C197.423 53.3067 197.119 52.77 197.119 52.07C197.119 51.6033 197.236 51.16 197.469 50.74C197.796 50.1333 198.309 49.2233 199.009 48.01C199.709 46.75 200.433 45.4433 201.179 44.09C201.926 42.69 202.556 41.4067 203.069 40.24C203.583 39.0267 203.839 38.14 203.839 37.58C203.839 36.5067 203.373 35.69 202.439 35.13C201.553 34.57 200.526 34.29 199.359 34.29C197.539 34.29 195.836 34.8033 194.249 35.83C192.663 36.81 191.216 38 189.909 39.4C188.603 40.8 187.413 42.1533 186.339 43.46C186.199 43.6467 186.013 43.74 185.779 43.74C185.546 43.74 185.336 43.6233 185.149 43.39C185.009 43.11 185.033 42.8533 185.219 42.62C186.433 41.1733 187.739 39.7033 189.139 38.21C190.539 36.7167 192.079 35.4567 193.759 34.43C195.486 33.4033 197.353 32.89 199.359 32.89C200.199 32.89 201.063 33.0533 201.949 33.38C202.883 33.66 203.653 34.15 204.259 34.85C204.913 35.55 205.239 36.46 205.239 37.58C205.239 38.28 204.959 39.26 204.399 40.52C203.886 41.7333 203.256 43.0633 202.509 44.51C201.763 45.91 201.039 47.24 200.339 48.5C199.639 49.76 199.103 50.74 198.729 51.44C198.589 51.6267 198.519 51.8133 198.519 52C198.519 52.3267 198.706 52.5367 199.079 52.63C199.453 52.7233 199.803 52.77 200.129 52.77C201.203 52.77 202.323 52.3033 203.489 51.37C204.656 50.4367 205.753 49.3633 206.779 48.15C207.806 46.89 208.599 45.8633 209.159 45.07C209.299 44.8833 209.463 44.79 209.649 44.79C209.883 44.79 210.093 44.9067 210.279 45.14C210.513 45.3733 210.513 45.63 210.279 45.91C209.626 46.8433 208.739 47.9633 207.619 49.27C206.546 50.5767 205.356 51.72 204.049 52.7C202.743 53.68 201.436 54.17 200.129 54.17ZM178.009 59.21C177.029 59.21 176.306 58.8833 175.839 58.23C175.419 57.5767 175.209 56.8767 175.209 56.13C175.209 55.5233 175.466 54.6833 175.979 53.61C176.493 52.5367 177.099 51.3933 177.799 50.18C178.546 48.9667 179.246 47.8233 179.899 46.75C180.553 45.6767 181.043 44.8133 181.369 44.16C181.509 43.88 181.719 43.74 181.999 43.74C182.233 43.74 182.419 43.8333 182.559 44.02C182.746 44.2067 182.769 44.44 182.629 44.72C182.349 45.28 181.883 46.0967 181.229 47.17C180.623 48.2433 179.946 49.3867 179.199 50.6C178.499 51.8133 177.893 52.9333 177.379 53.96C176.866 54.94 176.609 55.6633 176.609 56.13C176.609 57.25 177.076 57.81 178.009 57.81C178.943 57.81 179.783 57.39 180.529 56.55C181.276 55.6633 182.023 54.52 182.769 53.12C183.516 51.72 184.356 50.2033 185.289 48.57C186.223 46.9367 187.319 45.3267 188.579 43.74C189.839 42.1067 191.356 40.66 193.129 39.4C194.903 38.0933 197.026 37.1367 199.499 36.53H199.709C200.176 36.53 200.409 36.7633 200.409 37.23C200.409 37.5567 200.223 37.7667 199.849 37.86C197.469 38.4667 195.416 39.4 193.689 40.66C192.009 41.92 190.563 43.3667 189.349 45C188.136 46.5867 187.063 48.22 186.129 49.9C185.243 51.58 184.403 53.12 183.609 54.52C182.816 55.92 181.976 57.0633 181.089 57.95C180.203 58.79 179.176 59.21 178.009 59.21ZM196.559 59.28C195.113 59.28 193.829 58.8367 192.709 57.95C191.636 57.0633 191.099 55.78 191.099 54.1C191.099 53.9133 191.099 53.75 191.099 53.61C191.099 53.4233 191.123 53.2367 191.169 53.05C191.309 51.9767 191.659 50.7633 192.219 49.41C192.826 48.0567 193.503 46.7267 194.249 45.42C195.043 44.1133 195.743 43.0167 196.349 42.13C196.489 41.8967 196.676 41.78 196.909 41.78C197.143 41.78 197.329 41.8967 197.469 42.13C197.656 42.3633 197.656 42.6433 197.469 42.97C197.469 42.97 197.236 43.32 196.769 44.02C196.303 44.6733 195.789 45.5367 195.229 46.61C194.529 47.87 193.899 49.1767 193.339 50.53C192.779 51.8833 192.499 53.05 192.499 54.03C192.499 55.29 192.873 56.2467 193.619 56.9C194.413 57.5533 195.393 57.88 196.559 57.88C198.053 57.88 199.523 57.5767 200.969 56.97C202.416 56.3633 203.723 55.6167 204.889 54.73C204.983 54.6367 205.123 54.59 205.309 54.59C205.776 54.59 206.009 54.8233 206.009 55.29C206.009 55.5233 205.916 55.71 205.729 55.85C204.423 56.83 202.999 57.6467 201.459 58.3C199.919 58.9533 198.286 59.28 196.559 59.28ZM209.742 46.26C209.509 46.26 209.322 46.12 209.182 45.84C208.996 45.56 208.996 45.3033 209.182 45.07C210.629 43.4367 211.866 41.99 212.892 40.73C213.966 39.4233 214.969 38.1167 215.902 36.81C216.882 35.5033 217.932 34.0567 219.052 32.47C219.566 31.77 220.149 31.28 220.802 31C221.456 30.6733 222.086 30.51 222.692 30.51C223.672 30.51 224.512 30.79 225.212 31.35C225.959 31.91 226.332 32.54 226.332 33.24C226.332 33.66 226.169 34.0567 225.842 34.43C225.702 34.57 225.539 34.64 225.352 34.64C225.119 34.64 224.909 34.5233 224.722 34.29C224.582 34.01 224.629 33.73 224.862 33.45C224.909 33.4033 224.932 33.31 224.932 33.17C224.932 33.03 224.862 32.8667 224.722 32.68C224.582 32.4933 224.256 32.3067 223.742 32.12C223.416 31.98 223.066 31.91 222.692 31.91C222.272 31.91 221.829 32.0267 221.362 32.26C220.942 32.4467 220.546 32.7967 220.172 33.31C219.006 34.8967 217.932 36.3433 216.952 37.65C216.019 38.9567 215.039 40.2633 214.012 41.57C212.986 42.8767 211.749 44.3467 210.302 45.98C210.162 46.1667 209.976 46.26 209.742 46.26ZM234.172 54.17C233.426 54.17 232.726 54.0067 232.072 53.68C231.466 53.3067 231.162 52.77 231.162 52.07C231.162 51.6033 231.279 51.16 231.512 50.74C231.839 50.1333 232.352 49.2233 233.052 48.01C233.752 46.75 234.476 45.4433 235.222 44.09C235.969 42.69 236.599 41.4067 237.112 40.24C237.626 39.0267 237.882 38.14 237.882 37.58C237.882 36.5067 237.416 35.69 236.482 35.13C235.596 34.57 234.569 34.29 233.402 34.29C231.582 34.29 229.879 34.8033 228.292 35.83C226.706 36.81 225.259 38 223.952 39.4C222.646 40.8 221.456 42.1533 220.382 43.46C220.242 43.6467 220.056 43.74 219.822 43.74C219.589 43.74 219.379 43.6233 219.192 43.39C219.052 43.11 219.076 42.8533 219.262 42.62C220.476 41.1733 221.782 39.7033 223.182 38.21C224.582 36.7167 226.122 35.4567 227.802 34.43C229.529 33.4033 231.396 32.89 233.402 32.89C234.242 32.89 235.106 33.0533 235.992 33.38C236.926 33.66 237.696 34.15 238.302 34.85C238.956 35.55 239.282 36.46 239.282 37.58C239.282 38.28 239.002 39.26 238.442 40.52C237.929 41.7333 237.299 43.0633 236.552 44.51C235.806 45.91 235.082 47.24 234.382 48.5C233.682 49.76 233.146 50.74 232.772 51.44C232.632 51.6267 232.562 51.8133 232.562 52C232.562 52.3267 232.749 52.5367 233.122 52.63C233.496 52.7233 233.846 52.77 234.172 52.77C235.246 52.77 236.366 52.3033 237.532 51.37C238.699 50.4367 239.796 49.3633 240.822 48.15C241.849 46.89 242.642 45.8633 243.202 45.07C243.342 44.8833 243.506 44.79 243.692 44.79C243.926 44.79 244.136 44.9067 244.322 45.14C244.556 45.3733 244.556 45.63 244.322 45.91C243.669 46.8433 242.782 47.9633 241.662 49.27C240.589 50.5767 239.399 51.72 238.092 52.7C236.786 53.68 235.479 54.17 234.172 54.17ZM212.052 59.21C211.072 59.21 210.349 58.8833 209.882 58.23C209.462 57.5767 209.252 56.8767 209.252 56.13C209.252 55.5233 209.509 54.6833 210.022 53.61C210.536 52.5367 211.142 51.3933 211.842 50.18C212.589 48.9667 213.289 47.8233 213.942 46.75C214.596 45.6767 215.086 44.8133 215.412 44.16C215.552 43.88 215.762 43.74 216.042 43.74C216.276 43.74 216.462 43.8333 216.602 44.02C216.789 44.2067 216.812 44.44 216.672 44.72C216.392 45.28 215.926 46.0967 215.272 47.17C214.666 48.2433 213.989 49.3867 213.242 50.6C212.542 51.8133 211.936 52.9333 211.422 53.96C210.909 54.94 210.652 55.6633 210.652 56.13C210.652 57.25 211.119 57.81 212.052 57.81C212.986 57.81 213.826 57.39 214.572 56.55C215.319 55.6633 216.066 54.52 216.812 53.12C217.559 51.72 218.399 50.2033 219.332 48.57C220.266 46.9367 221.362 45.3267 222.622 43.74C223.882 42.1067 225.399 40.66 227.172 39.4C228.946 38.0933 231.069 37.1367 233.542 36.53H233.752C234.219 36.53 234.452 36.7633 234.452 37.23C234.452 37.5567 234.266 37.7667 233.892 37.86C231.512 38.4667 229.459 39.4 227.732 40.66C226.052 41.92 224.606 43.3667 223.392 45C222.179 46.5867 221.106 48.22 220.172 49.9C219.286 51.58 218.446 53.12 217.652 54.52C216.859 55.92 216.019 57.0633 215.132 57.95C214.246 58.79 213.219 59.21 212.052 59.21ZM230.602 59.28C229.156 59.28 227.872 58.8367 226.752 57.95C225.679 57.0633 225.142 55.78 225.142 54.1C225.142 53.9133 225.142 53.75 225.142 53.61C225.142 53.4233 225.166 53.2367 225.212 53.05C225.352 51.9767 225.702 50.7633 226.262 49.41C226.869 48.0567 227.546 46.7267 228.292 45.42C229.086 44.1133 229.786 43.0167 230.392 42.13C230.532 41.8967 230.719 41.78 230.952 41.78C231.186 41.78 231.372 41.8967 231.512 42.13C231.699 42.3633 231.699 42.6433 231.512 42.97C231.512 42.97 231.279 43.32 230.812 44.02C230.346 44.6733 229.832 45.5367 229.272 46.61C228.572 47.87 227.942 49.1767 227.382 50.53C226.822 51.8833 226.542 53.05 226.542 54.03C226.542 55.29 226.916 56.2467 227.662 56.9C228.456 57.5533 229.436 57.88 230.602 57.88C232.096 57.88 233.566 57.5767 235.012 56.97C236.459 56.3633 237.766 55.6167 238.932 54.73C239.026 54.6367 239.166 54.59 239.352 54.59C239.819 54.59 240.052 54.8233 240.052 55.29C240.052 55.5233 239.959 55.71 239.772 55.85C238.466 56.83 237.042 57.6467 235.502 58.3C233.962 58.9533 232.329 59.28 230.602 59.28ZM249.105 54.87C247.985 54.87 247.238 54.4267 246.865 53.54C246.538 52.6067 246.375 51.8367 246.375 51.23C246.375 50.0633 246.772 48.6867 247.565 47.1C248.358 45.5133 249.385 43.95 250.645 42.41C251.905 40.87 253.258 39.5867 254.705 38.56C256.152 37.5333 257.528 37.02 258.835 37.02C259.488 37.02 259.815 37.2533 259.815 37.72C259.815 37.9067 259.745 38.0933 259.605 38.28C259.465 38.42 259.278 38.4667 259.045 38.42C258.018 38.3267 256.852 38.7467 255.545 39.68C254.285 40.5667 253.048 41.7333 251.835 43.18C250.668 44.58 249.688 46.0033 248.895 47.45C248.148 48.8967 247.775 50.1567 247.775 51.23C247.775 51.8833 247.892 52.42 248.125 52.84C248.358 53.26 248.685 53.47 249.105 53.47C249.898 53.47 250.808 53.0033 251.835 52.07C252.908 51.09 254.005 49.8767 255.125 48.43C256.245 46.9367 257.318 45.3967 258.345 43.81C259.418 42.1767 260.352 40.7067 261.145 39.4C261.985 38.0467 262.615 37.0433 263.035 36.39C263.922 35.0833 264.808 34.1733 265.695 33.66C266.582 33.1 267.398 32.82 268.145 32.82C268.985 32.82 269.662 33.0767 270.175 33.59C270.735 34.1033 271.015 34.7567 271.015 35.55C271.015 36.25 270.758 36.9967 270.245 37.79C269.872 38.35 269.265 39.2833 268.425 40.59C267.585 41.85 266.722 43.2267 265.835 44.72C264.948 46.1667 264.202 47.4967 263.595 48.71C262.942 50.11 262.615 51.23 262.615 52.07C262.615 53.0033 263.082 53.47 264.015 53.47C264.855 53.47 265.788 53.19 266.815 52.63C267.888 52.07 268.962 51.3467 270.035 50.46C271.108 49.5733 272.112 48.6633 273.045 47.73C273.978 46.75 274.748 45.8633 275.355 45.07C275.495 44.8833 275.658 44.79 275.845 44.79C276.125 44.79 276.335 44.93 276.475 45.21C276.662 45.4433 276.662 45.6767 276.475 45.91C275.868 46.7967 275.028 47.7533 273.955 48.78C272.928 49.8067 271.808 50.7867 270.595 51.72C269.382 52.6533 268.168 53.4233 266.955 54.03C265.742 54.59 264.668 54.87 263.735 54.87C262.848 54.87 262.195 54.6133 261.775 54.1C261.402 53.5867 261.215 52.9333 261.215 52.14C261.215 51.16 261.495 50.04 262.055 48.78C262.662 47.4733 263.408 46.05 264.295 44.51C265.228 42.9233 266.138 41.4533 267.025 40.1C267.958 38.7 268.658 37.65 269.125 36.95C269.452 36.4833 269.615 36.0167 269.615 35.55C269.615 34.6633 269.148 34.22 268.215 34.22C267.702 34.22 267.072 34.4533 266.325 34.92C265.625 35.3867 264.902 36.1567 264.155 37.23C263.128 38.77 261.985 40.5433 260.725 42.55C259.512 44.5567 258.275 46.4467 257.015 48.22C255.755 49.9467 254.448 51.4867 253.095 52.84C251.788 54.1933 250.458 54.87 249.105 54.87ZM243.785 46.26C243.552 46.26 243.365 46.1433 243.225 45.91C243.038 45.6767 243.038 45.42 243.225 45.14C244.018 44.02 244.928 42.8067 245.955 41.5C247.028 40.1467 248.218 38.8867 249.525 37.72C250.832 36.5067 252.232 35.5267 253.725 34.78C255.218 33.9867 256.782 33.59 258.415 33.59C258.928 33.59 259.442 33.66 259.955 33.8C260.468 33.8933 260.958 34.0333 261.425 34.22C261.705 34.36 261.845 34.57 261.845 34.85C261.845 35.0367 261.752 35.2233 261.565 35.41C261.378 35.55 261.145 35.5733 260.865 35.48C260.865 35.48 260.795 35.4567 260.655 35.41C260.515 35.3633 260.328 35.3167 260.095 35.27C259.862 35.1767 259.605 35.1067 259.325 35.06C259.045 35.0133 258.742 34.99 258.415 34.99C256.502 34.99 254.682 35.5733 252.955 36.74C251.228 37.9067 249.618 39.33 248.125 41.01C246.678 42.69 245.418 44.3233 244.345 45.91C244.205 46.1433 244.018 46.26 243.785 46.26ZM261.495 59.35C259.395 59.35 257.878 58.79 256.945 57.67C256.058 56.5033 255.615 55.2433 255.615 53.89C255.615 52.77 255.895 51.6967 256.455 50.67C256.595 50.4367 256.805 50.32 257.085 50.32C257.318 50.32 257.505 50.4367 257.645 50.67C257.832 50.8567 257.855 51.09 257.715 51.37C257.248 52.21 257.015 53.05 257.015 53.89C257.015 54.9167 257.365 55.85 258.065 56.69C258.765 57.53 259.908 57.95 261.495 57.95C263.268 57.95 264.948 57.5767 266.535 56.83C268.168 56.0367 269.708 55.1033 271.155 54.03C271.248 53.9367 271.388 53.89 271.575 53.89C272.042 53.89 272.275 54.1233 272.275 54.59C272.275 54.8233 272.182 55.01 271.995 55.15C270.502 56.27 268.892 57.25 267.165 58.09C265.438 58.93 263.548 59.35 261.495 59.35ZM248.125 59.28C246.585 59.28 245.208 58.7667 243.995 57.74C242.828 56.7133 242.292 55.1267 242.385 52.98C242.385 52.56 242.618 52.35 243.085 52.35C243.272 52.35 243.458 52.42 243.645 52.56C243.785 52.6533 243.832 52.8167 243.785 53.05C243.738 54.73 244.158 55.9667 245.045 56.76C245.932 57.5067 246.958 57.88 248.125 57.88C249.058 57.88 249.992 57.67 250.925 57.25C251.858 56.7833 252.628 56.13 253.235 55.29C253.375 55.1033 253.562 55.01 253.795 55.01C254.028 55.01 254.238 55.1267 254.425 55.36C254.612 55.5933 254.588 55.85 254.355 56.13C253.608 57.1567 252.675 57.95 251.555 58.51C250.435 59.0233 249.292 59.28 248.125 59.28ZM356.715 33.1C356.202 33.1 355.945 32.8667 355.945 32.4C355.945 31.9333 356.179 31.7 356.645 31.7C359.025 31.6067 361.219 31.0467 363.225 30.02C365.279 28.9467 366.912 27.6167 368.125 26.03C369.385 24.4433 370.015 22.8567 370.015 21.27C370.015 19.9167 369.502 18.68 368.475 17.56C367.449 16.3933 365.792 15.46 363.505 14.76C361.219 14.06 358.162 13.71 354.335 13.71C352.469 13.71 350.322 13.85 347.895 14.13C345.515 14.3633 343.089 14.7833 340.615 15.39C338.142 15.9967 335.809 16.8133 333.615 17.84C331.422 18.8667 329.555 20.15 328.015 21.69C327.689 22.0167 327.315 22.32 326.895 22.6C326.522 22.88 326.079 23.02 325.565 23.02C325.005 23.02 324.585 22.8333 324.305 22.46C324.025 22.0867 323.885 21.5967 323.885 20.99C323.885 19.8233 324.235 18.7033 324.935 17.63C325.682 16.51 326.639 15.5067 327.805 14.62C328.972 13.6867 330.185 12.9167 331.445 12.31C334.432 10.8633 337.909 9.83667 341.875 9.23C345.889 8.57666 349.855 8.25 353.775 8.25C357.135 8.25 360.262 8.46 363.155 8.88C366.095 9.25333 368.499 9.81333 370.365 10.56C372.419 11.4 374.145 12.59 375.545 14.13C376.945 15.6233 377.645 17.6067 377.645 20.08C377.645 21.9 377.272 23.65 376.525 25.33C375.825 26.9633 374.869 28.3867 373.655 29.6C372.442 30.8133 371.089 31.7 369.595 32.26C369.549 32.3067 369.455 32.33 369.315 32.33C368.895 32.33 368.685 32.0967 368.685 31.63C368.685 31.35 368.825 31.14 369.105 31C371.205 30.2067 372.932 28.7833 374.285 26.73C375.639 24.63 376.315 22.4367 376.315 20.15C376.315 18.0967 375.755 16.4167 374.635 15.11C373.515 13.8033 372.045 12.7767 370.225 12.03C368.452 11.2833 366.539 10.7467 364.485 10.42C362.432 10.0467 360.449 9.83667 358.535 9.79C356.622 9.69666 354.989 9.65 353.635 9.65C349.669 9.65 345.772 9.97666 341.945 10.63C338.119 11.2367 334.829 12.1933 332.075 13.5C330.255 14.3867 328.669 15.53 327.315 16.93C325.962 18.33 325.285 19.66 325.285 20.92C325.285 21.3867 325.449 21.62 325.775 21.62C326.009 21.62 326.312 21.4333 326.685 21.06C327.059 20.6867 327.339 20.3833 327.525 20.15C329.159 18.47 331.445 17.0467 334.385 15.88C337.325 14.7133 340.545 13.8267 344.045 13.22C347.545 12.6133 350.952 12.31 354.265 12.31C358.419 12.31 361.755 12.73 364.275 13.57C366.795 14.41 368.615 15.5067 369.735 16.86C370.855 18.1667 371.415 19.6133 371.415 21.2C371.415 23.0667 370.739 24.8867 369.385 26.66C368.079 28.4333 366.305 29.9267 364.065 31.14C361.872 32.3533 359.422 33.0067 356.715 33.1ZM310.725 61.38C308.999 61.38 307.155 61.17 305.195 60.75C303.235 60.3767 301.415 59.77 299.735 58.93C298.055 58.0433 296.679 56.9 295.605 55.5C294.532 54.0533 293.995 52.28 293.995 50.18C293.995 47.4267 294.719 44.8133 296.165 42.34C297.659 39.8667 299.595 37.6967 301.975 35.83C304.402 33.9167 307.062 32.4233 309.955 31.35C312.895 30.23 315.812 29.67 318.705 29.67C319.825 29.67 321.249 29.81 322.975 30.09C324.749 30.37 326.522 30.8367 328.295 31.49C330.069 32.0967 331.562 32.9133 332.775 33.94C334.035 34.9667 334.712 36.2267 334.805 37.72C334.852 38.1867 334.525 38.7233 333.825 39.33C333.172 39.9367 332.565 40.24 332.005 40.24C331.585 40.24 331.305 40.0067 331.165 39.54C331.025 38.9333 330.279 38.2333 328.925 37.44C327.619 36.6 325.962 35.8767 323.955 35.27C321.995 34.6167 319.965 34.29 317.865 34.29C315.579 34.29 313.385 34.7567 311.285 35.69C309.185 36.6233 307.295 37.8367 305.615 39.33C303.935 40.7767 302.605 42.3633 301.625 44.09C300.645 45.8167 300.155 47.4967 300.155 49.13C300.155 51.1367 301.042 52.84 302.815 54.24C304.589 55.5933 307.575 56.27 311.775 56.27C313.969 56.27 316.255 55.8033 318.635 54.87C321.015 53.89 323.395 52.6067 325.775 51.02C328.155 49.4333 330.465 47.66 332.705 45.7C334.945 43.6933 337.022 41.64 338.935 39.54C340.849 37.44 342.529 35.4567 343.975 33.59C344.815 32.5167 345.795 31.2333 346.915 29.74C348.082 28.2467 349.272 26.6833 350.485 25.05C351.745 23.4167 352.912 21.8767 353.985 20.43C355.105 18.9833 355.992 17.7467 356.645 16.72C356.785 16.4867 356.995 16.37 357.275 16.37C357.509 16.37 357.695 16.4867 357.835 16.72C357.975 16.9067 357.952 17.14 357.765 17.42C357.065 18.4467 356.179 19.7067 355.105 21.2C354.032 22.6933 352.865 24.2567 351.605 25.89C350.392 27.4767 349.202 29.04 348.035 30.58C346.915 32.0733 345.935 33.3567 345.095 34.43C343.649 36.2967 341.945 38.3033 339.985 40.45C338.025 42.55 335.902 44.6267 333.615 46.68C331.329 48.6867 328.949 50.53 326.475 52.21C324.002 53.8433 321.505 55.1733 318.985 56.2C316.512 57.18 314.109 57.67 311.775 57.67C309.815 57.67 307.832 57.4367 305.825 56.97C303.865 56.4567 302.209 55.5933 300.855 54.38C299.502 53.12 298.825 51.37 298.825 49.13C298.825 46.89 299.409 44.79 300.575 42.83C301.789 40.87 303.352 39.1433 305.265 37.65C307.179 36.1567 309.232 34.99 311.425 34.15C313.665 33.31 315.812 32.89 317.865 32.89C319.825 32.89 321.832 33.1933 323.885 33.8C325.939 34.36 327.735 35.1067 329.275 36.04C330.815 36.9267 331.819 37.8367 332.285 38.77C332.799 38.49 333.172 38.14 333.405 37.72C333.312 36.5067 332.659 35.48 331.445 34.64C330.279 33.7533 328.879 33.0533 327.245 32.54C325.612 32.0267 324.002 31.6533 322.415 31.42C320.875 31.1867 319.639 31.07 318.705 31.07C315.999 31.07 313.269 31.5833 310.515 32.61C307.762 33.6367 305.242 35.06 302.955 36.88C300.715 38.6533 298.895 40.6833 297.495 42.97C296.142 45.21 295.465 47.59 295.465 50.11C295.465 51.8367 295.909 53.33 296.795 54.59C297.729 55.85 298.942 56.8767 300.435 57.67C301.929 58.4633 303.562 59.0467 305.335 59.42C307.155 59.7933 308.952 59.98 310.725 59.98C314.552 59.98 318.262 59.28 321.855 57.88C325.495 56.48 328.925 54.66 332.145 52.42C335.412 50.1333 338.399 47.6367 341.105 44.93C343.812 42.2233 346.145 39.5633 348.105 36.95C348.199 36.95 348.339 36.8567 348.525 36.67C350.439 36.1567 352.562 35.9 354.895 35.9C356.249 35.9 357.579 35.9933 358.885 36.18C360.239 36.3667 361.499 36.6467 362.665 37.02C364.392 37.6267 365.839 38.49 367.005 39.61C368.219 40.6833 368.825 42.0833 368.825 43.81C368.825 44.8367 368.545 45.98 367.985 47.24C367.099 49.2 365.862 50.8333 364.275 52.14C362.689 53.4 360.915 54.3567 358.955 55.01C356.995 55.6633 355.012 55.99 353.005 55.99C351.045 55.99 349.179 55.6867 347.405 55.08C345.632 54.4733 344.139 53.5633 342.925 52.35C342.785 52.21 342.715 52.0467 342.715 51.86C342.715 51.6267 342.855 51.44 343.135 51.3C343.415 51.1133 343.672 51.1367 343.905 51.37C345.119 52.5833 346.449 53.47 347.895 54.03C349.389 54.5433 350.882 54.8 352.375 54.8C354.242 54.8 356.062 54.4733 357.835 53.82C359.655 53.1667 361.289 52.3033 362.735 51.23C364.182 50.1567 365.325 48.99 366.165 47.73C367.052 46.4233 367.495 45.14 367.495 43.88C367.495 42.76 367.075 41.71 366.235 40.73C365.442 39.75 364.112 38.9567 362.245 38.35C361.172 37.9767 360.005 37.6967 358.745 37.51C357.485 37.3233 356.249 37.23 355.035 37.23C352.842 37.23 350.859 37.4867 349.085 38C347.125 40.6133 344.769 43.2967 342.015 46.05C339.262 48.8033 336.205 51.3467 332.845 53.68C329.532 55.9667 326.009 57.81 322.275 59.21C318.542 60.6567 314.692 61.38 310.725 61.38ZM352.515 32.47C352.282 32.47 352.072 32.3767 351.885 32.19C351.699 31.9567 351.699 31.7 351.885 31.42C352.492 30.44 353.285 29.18 354.265 27.64C355.292 26.1 356.389 24.4433 357.555 22.67C358.769 20.85 359.889 19.1467 360.915 17.56C361.055 17.3267 361.242 17.21 361.475 17.21C361.709 17.21 361.919 17.3267 362.105 17.56C362.292 17.7933 362.292 18.05 362.105 18.33C361.079 19.9167 359.959 21.5967 358.745 23.37C357.579 25.1433 356.482 26.8 355.455 28.34C354.475 29.88 353.682 31.14 353.075 32.12C352.982 32.3533 352.795 32.47 352.515 32.47ZM354.475 59.7C351.349 59.7 348.339 59.2333 345.445 58.3C342.552 57.32 340.242 55.9667 338.515 54.24C338.375 54.1 338.305 53.9367 338.305 53.75C338.305 53.5167 338.445 53.33 338.725 53.19C339.005 53.0033 339.262 53.0267 339.495 53.26C341.129 54.8467 343.275 56.0833 345.935 56.97C348.642 57.8567 351.442 58.3 354.335 58.3C357.042 58.3 359.679 57.9033 362.245 57.11C364.859 56.27 367.122 55.01 369.035 53.33C370.995 51.65 372.349 49.48 373.095 46.82C373.422 45.7933 373.585 44.7433 373.585 43.67C373.585 41.1967 372.652 39.26 370.785 37.86C368.965 36.46 366.422 35.55 363.155 35.13C362.735 35.0367 362.525 34.8033 362.525 34.43C362.525 33.87 362.805 33.6367 363.365 33.73C366.772 34.15 369.549 35.1767 371.695 36.81C373.889 38.4433 374.985 40.7067 374.985 43.6C374.985 44.16 374.939 44.7433 374.845 45.35C374.752 45.9567 374.612 46.5867 374.425 47.24C373.585 50.1333 372.139 52.5133 370.085 54.38C368.032 56.2 365.629 57.5533 362.875 58.44C360.169 59.28 357.369 59.7 354.475 59.7ZM397.156 30.86C396.036 30.86 395.08 30.4633 394.286 29.67C393.493 28.8767 393.096 27.92 393.096 26.8C393.096 25.6333 393.493 24.6533 394.286 23.86C395.08 23.0667 396.036 22.67 397.156 22.67C398.323 22.67 399.303 23.0667 400.096 23.86C400.89 24.6533 401.286 25.6333 401.286 26.8C401.286 27.92 400.89 28.8767 400.096 29.67C399.303 30.4633 398.323 30.86 397.156 30.86ZM397.156 29.46C397.95 29.46 398.603 29.2033 399.116 28.69C399.63 28.1767 399.886 27.5467 399.886 26.8C399.886 26.0067 399.63 25.3533 399.116 24.84C398.603 24.3267 397.95 24.07 397.156 24.07C396.41 24.07 395.78 24.3267 395.266 24.84C394.753 25.3533 394.496 26.0067 394.496 26.8C394.496 27.5467 394.753 28.1767 395.266 28.69C395.78 29.2033 396.41 29.46 397.156 29.46ZM387.706 55.08C386.82 55.08 386.19 54.7533 385.816 54.1C385.49 53.4467 385.326 52.7233 385.326 51.93C385.326 51.2767 385.49 50.3433 385.816 49.13C386.143 47.9167 386.586 46.61 387.146 45.21C387.753 43.7633 388.43 42.4333 389.176 41.22C389.923 39.96 390.693 38.9567 391.486 38.21C391.906 37.79 392.35 37.4167 392.816 37.09C393.283 36.4367 393.516 35.83 393.516 35.27C393.516 34.57 393.19 34.0333 392.536 33.66C391.93 33.24 391.253 33.03 390.506 33.03C389.713 33.03 389.106 33.2167 388.686 33.59C388.033 34.1967 387.333 34.92 386.586 35.76C385.886 36.5533 385.14 37.4867 384.346 38.56C383.506 39.6333 382.62 40.8 381.686 42.06C380.753 43.2733 379.68 44.58 378.466 45.98C378.326 46.1667 378.14 46.26 377.906 46.26C377.673 46.26 377.486 46.12 377.346 45.84C377.16 45.56 377.16 45.3033 377.346 45.07C378.56 43.7167 379.633 42.41 380.566 41.15C381.546 39.89 382.433 38.7467 383.226 37.72C384.066 36.6467 384.836 35.69 385.536 34.85C386.283 33.9633 387.03 33.1933 387.776 32.54C388.476 31.8867 389.34 31.56 390.366 31.56C391.58 31.56 392.676 31.98 393.656 32.82C394.636 33.6133 395.126 34.5467 395.126 35.62C395.126 36.5533 394.636 37.4167 393.656 38.21L393.306 38.49C392.84 38.91 392.35 39.3533 391.836 39.82C391.37 40.2867 390.973 40.8 390.646 41.36C390.133 42.4333 389.55 43.6233 388.896 44.93C388.29 46.19 387.753 47.45 387.286 48.71C386.866 49.97 386.656 51.09 386.656 52.07C386.656 53.1433 387.1 53.68 387.986 53.68C388.406 53.68 388.92 53.5633 389.526 53.33C390.973 52.7233 392.466 51.7667 394.006 50.46C395.546 49.1533 397.203 47.3567 398.976 45.07C399.116 44.8833 399.28 44.79 399.466 44.79C399.746 44.79 399.98 44.93 400.166 45.21C400.353 45.4433 400.33 45.6767 400.096 45.91C398.65 47.7767 397.296 49.2933 396.036 50.46C394.823 51.6267 393.4 52.6767 391.766 53.61C390.88 54.1233 390.11 54.4967 389.456 54.73C388.803 54.9633 388.22 55.08 387.706 55.08ZM387.356 59.35C385.07 59.35 383.273 58.5567 381.966 56.97C380.706 55.3833 380.17 53.4233 380.356 51.09C380.403 50.39 380.613 49.41 380.986 48.15C381.36 46.8433 381.826 45.5367 382.386 44.23C382.993 42.8767 383.6 41.78 384.206 40.94C384.346 40.7533 384.533 40.66 384.766 40.66C385 40.66 385.21 40.7767 385.396 41.01C385.583 41.2433 385.56 41.5 385.326 41.78C384.766 42.5267 384.206 43.53 383.646 44.79C383.133 46.05 382.69 47.2867 382.316 48.5C381.99 49.7133 381.803 50.6233 381.756 51.23C381.616 52.9567 382.036 54.52 383.016 55.92C383.996 57.32 385.466 58.02 387.426 58.02C388.64 58.02 390.063 57.67 391.696 56.97C393.33 56.2233 395.103 54.9867 397.016 53.26C397.11 53.1667 397.25 53.12 397.436 53.12C397.763 53.12 397.996 53.2833 398.136 53.61C398.323 53.89 398.276 54.1467 397.996 54.38C395.99 56.1533 394.076 57.4367 392.256 58.23C390.483 58.9767 388.85 59.35 387.356 59.35ZM404.828 54.87C403.708 54.87 402.961 54.4267 402.588 53.54C402.261 52.6067 402.098 51.8367 402.098 51.23C402.098 50.0633 402.494 48.6633 403.288 47.03C404.081 45.3967 405.108 43.81 406.368 42.27C407.674 40.6833 409.051 39.3767 410.498 38.35C411.944 37.2767 413.321 36.74 414.628 36.74C415.188 36.74 415.468 36.9733 415.468 37.44C415.468 37.6267 415.398 37.8133 415.258 38C415.164 38.14 415.001 38.1867 414.768 38.14C413.741 38.0933 412.574 38.5367 411.268 39.47C410.008 40.4033 408.771 41.5933 407.558 43.04C406.391 44.4867 405.411 45.9567 404.618 47.45C403.871 48.8967 403.498 50.1567 403.498 51.23C403.498 51.8833 403.614 52.42 403.848 52.84C404.081 53.26 404.408 53.47 404.828 53.47C405.388 53.47 406.088 53.0733 406.928 52.28C407.814 51.4867 408.724 50.53 409.658 49.41C410.638 48.29 411.501 47.24 412.248 46.26C412.994 45.2333 413.508 44.5333 413.788 44.16C414.908 42.6667 416.004 41.1733 417.078 39.68C418.151 38.1867 419.271 36.7867 420.438 35.48C421.138 34.64 422.048 33.4967 423.168 32.05C424.334 30.6033 425.548 29.0633 426.808 27.43C428.114 25.75 429.351 24.1633 430.518 22.67C431.731 21.13 432.711 19.9167 433.458 19.03C433.971 18.4233 434.578 17.98 435.278 17.7C435.978 17.42 436.654 17.28 437.308 17.28C438.101 17.28 438.778 17.4667 439.338 17.84C439.898 18.1667 440.178 18.6567 440.178 19.31C440.178 19.9633 439.851 20.6867 439.198 21.48C438.591 22.18 437.634 23.3 436.328 24.84C435.068 26.3333 433.621 28.0833 431.988 30.09C430.401 32.0967 428.768 34.1967 427.088 36.39C425.454 38.5367 423.914 40.6367 422.468 42.69C421.068 44.6967 419.924 46.5167 419.038 48.15C418.198 49.7367 417.778 50.9267 417.778 51.72C417.778 52.84 418.221 53.4 419.108 53.4C420.228 53.4 421.511 53.0033 422.958 52.21C424.404 51.4167 425.851 50.39 427.298 49.13C428.791 47.8233 430.051 46.47 431.078 45.07C431.218 44.8833 431.404 44.79 431.638 44.79C431.871 44.79 432.081 44.9067 432.268 45.14C432.454 45.3733 432.431 45.63 432.198 45.91C431.171 47.31 429.888 48.6867 428.348 50.04C426.808 51.3933 425.221 52.5367 423.588 53.47C421.954 54.3567 420.461 54.8 419.108 54.8C418.128 54.8 417.428 54.4967 417.008 53.89C416.588 53.2367 416.378 52.5133 416.378 51.72C416.378 50.7867 416.821 49.48 417.708 47.8C418.594 46.0733 419.761 44.16 421.208 42.06C422.701 39.9133 424.288 37.72 425.968 35.48C427.648 33.24 429.304 31.0933 430.938 29.04C432.618 26.9867 434.088 25.2133 435.348 23.72C436.608 22.18 437.518 21.1067 438.078 20.5C438.498 19.9867 438.708 19.59 438.708 19.31C438.708 18.8433 438.334 18.61 437.588 18.61C437.121 18.61 436.584 18.7267 435.978 18.96C435.371 19.1933 434.904 19.4967 434.578 19.87C433.831 20.7567 432.851 21.97 431.638 23.51C430.471 25.0033 429.234 26.59 427.928 28.27C426.621 29.95 425.408 31.5133 424.288 32.96C423.168 34.4067 422.258 35.5267 421.558 36.32C419.178 39.12 416.938 42.0367 414.838 45.07C412.784 48.0567 410.451 50.81 407.838 53.33C407.511 53.6567 407.091 54.0067 406.578 54.38C406.064 54.7067 405.481 54.87 404.828 54.87ZM399.368 46.33C399.134 46.33 398.948 46.2367 398.808 46.05C398.621 45.8167 398.621 45.56 398.808 45.28C399.741 44.16 400.744 42.9233 401.818 41.57C402.891 40.17 404.058 38.84 405.318 37.58C406.624 36.32 408.001 35.2933 409.448 34.5C410.941 33.7067 412.504 33.31 414.138 33.31C414.838 33.31 415.561 33.4033 416.308 33.59C417.101 33.73 417.801 34.0567 418.408 34.57C418.594 34.71 418.688 34.8967 418.688 35.13C418.688 35.3633 418.548 35.5733 418.268 35.76C418.034 35.9 417.801 35.8767 417.568 35.69C417.101 35.3167 416.564 35.06 415.958 34.92C415.398 34.78 414.791 34.71 414.138 34.71C412.224 34.71 410.428 35.34 408.748 36.6C407.114 37.8133 405.574 39.2833 404.128 41.01C402.728 42.7367 401.374 44.3933 400.068 45.98C399.834 46.2133 399.601 46.33 399.368 46.33ZM416.658 59.77C414.978 59.77 413.648 59.35 412.668 58.51C411.688 57.67 411.198 56.34 411.198 54.52C411.198 53.82 411.268 53.1433 411.408 52.49C411.594 51.79 411.851 51.1367 412.178 50.53C412.318 50.2967 412.504 50.18 412.738 50.18C412.971 50.18 413.181 50.2967 413.368 50.53C413.554 50.7167 413.578 50.95 413.438 51.23C412.878 52.21 412.598 53.3067 412.598 54.52C412.598 55.8733 412.924 56.8533 413.578 57.46C414.278 58.0667 415.304 58.37 416.658 58.37C418.431 58.37 420.204 57.9267 421.978 57.04C423.798 56.1067 425.431 55.1033 426.878 54.03C426.971 53.9367 427.111 53.89 427.298 53.89C427.764 53.89 427.998 54.1467 427.998 54.66C427.998 54.8467 427.904 55.01 427.718 55.15C426.271 56.3167 424.568 57.39 422.608 58.37C420.694 59.3033 418.711 59.77 416.658 59.77ZM404.828 59.77C402.961 59.77 401.351 59.1167 399.998 57.81C398.691 56.4567 398.061 54.8467 398.108 52.98C398.108 52.56 398.341 52.35 398.808 52.35C398.994 52.35 399.181 52.42 399.368 52.56C399.508 52.6533 399.554 52.8167 399.508 53.05C399.461 54.5433 399.974 55.8033 401.048 56.83C402.121 57.8567 403.381 58.37 404.828 58.37C406.041 58.37 407.208 58.0667 408.328 57.46C408.514 57.3667 408.631 57.32 408.678 57.32C409.144 57.32 409.378 57.5767 409.378 58.09C409.378 58.37 409.261 58.58 409.028 58.72C407.721 59.42 406.321 59.77 404.828 59.77ZM448.437 32.12C448.157 32.12 447.923 32.0033 447.737 31.77C447.597 31.49 447.643 31.21 447.877 30.93L452.847 25.54C453.08 25.3067 453.197 25.0033 453.197 24.63C453.197 24.21 452.987 23.8367 452.567 23.51C452.193 23.1833 451.75 23.02 451.237 23.02C450.77 23.02 450.28 23.23 449.767 23.65C449.207 24.1167 448.343 25.0033 447.177 26.31C446.01 27.6167 444.68 29.18 443.187 31C443.187 31.0467 443.117 31.1167 442.977 31.21C442.837 31.2567 442.743 31.28 442.697 31.28H437.167C436.7 31.28 436.467 31.0467 436.467 30.58C436.467 30.1133 436.7 29.88 437.167 29.88H442.347C443.747 28.1067 445.03 26.59 446.197 25.33C447.363 24.0233 448.227 23.1133 448.787 22.6C449.487 21.9467 450.303 21.62 451.237 21.62C452.17 21.62 452.963 21.9233 453.617 22.53C454.27 23.09 454.597 23.7667 454.597 24.56C454.597 25.26 454.363 25.8667 453.897 26.38C453.803 26.52 453.477 26.8933 452.917 27.5C452.403 28.1067 451.773 28.8067 451.027 29.6C450.28 30.3933 449.58 31.1633 448.927 31.91C448.787 32.05 448.623 32.12 448.437 32.12ZM431.567 46.19C431.147 46.19 430.937 45.98 430.937 45.56C430.937 45.42 431.053 45.1867 431.287 44.86C432.5 43.3667 433.9 41.5933 435.487 39.54C437.073 37.4867 438.66 35.34 440.247 33.1C440.387 32.9133 440.55 32.82 440.737 32.82C441.017 32.82 441.227 32.96 441.367 33.24C441.553 33.4733 441.553 33.7067 441.367 33.94C439.78 36.18 438.193 38.35 436.607 40.45C435.02 42.5033 433.55 44.3233 432.197 45.91C432.01 46.0967 431.8 46.19 431.567 46.19ZM439.407 54.87C437.68 54.87 436.397 54.1933 435.557 52.84C435.37 52.4667 435.207 52.0933 435.067 51.72C434.927 51.3 434.857 50.8567 434.857 50.39C434.857 49.5967 435.043 48.6867 435.417 47.66C435.837 46.5867 436.49 45.4433 437.377 44.23C437.89 43.4833 438.637 42.5267 439.617 41.36C440.597 40.1467 441.623 38.8867 442.697 37.58C443.817 36.2267 444.773 34.99 445.567 33.87C445.567 33.8233 445.637 33.7767 445.777 33.73C445.963 33.6367 446.08 33.59 446.127 33.59H452.147C452.613 33.59 452.847 33.8233 452.847 34.29C452.847 34.7567 452.613 34.99 452.147 34.99H446.477C445.683 36.11 444.75 37.3233 443.677 38.63C442.65 39.89 441.647 41.1033 440.667 42.27C439.733 43.4367 439.01 44.37 438.497 45.07C437.703 46.2367 437.143 47.2633 436.817 48.15C436.49 48.99 436.327 49.7367 436.327 50.39C436.327 51.09 436.467 51.65 436.747 52.07C437.307 53.0033 438.193 53.47 439.407 53.47C440.62 53.47 441.857 53.0733 443.117 52.28C444.423 51.44 445.707 50.39 446.967 49.13C448.227 47.8233 449.37 46.47 450.397 45.07C450.537 44.8833 450.723 44.79 450.957 44.79C451.19 44.79 451.4 44.9067 451.587 45.14C451.773 45.3733 451.75 45.63 451.517 45.91C449.79 48.3367 447.83 50.4367 445.637 52.21C443.443 53.9833 441.367 54.87 439.407 54.87ZM437.167 59.07C435.347 59.07 433.877 58.5567 432.757 57.53C431.683 56.4567 431.193 54.94 431.287 52.98C431.287 52.56 431.52 52.35 431.987 52.35C432.173 52.35 432.337 52.42 432.477 52.56C432.663 52.6533 432.733 52.8167 432.687 53.05C432.64 54.3567 433.013 55.4767 433.807 56.41C434.647 57.2967 435.86 57.74 437.447 57.74C438.567 57.74 439.85 57.46 441.297 56.9C442.79 56.2933 444.4 55.3367 446.127 54.03C446.22 53.9367 446.36 53.89 446.547 53.89C447.013 53.89 447.247 54.1233 447.247 54.59C447.247 54.8233 447.153 55.01 446.967 55.15C445.24 56.4567 443.513 57.4367 441.787 58.09C440.107 58.7433 438.567 59.07 437.167 59.07ZM450.982 46.26C450.749 46.26 450.562 46.12 450.422 45.84C450.236 45.56 450.236 45.3033 450.422 45.07C451.869 43.4367 453.106 41.99 454.132 40.73C455.206 39.4233 456.209 38.1167 457.142 36.81C458.122 35.5033 459.172 34.0567 460.292 32.47C460.806 31.77 461.389 31.28 462.042 31C462.696 30.6733 463.326 30.51 463.932 30.51C464.912 30.51 465.752 30.79 466.452 31.35C467.199 31.91 467.572 32.54 467.572 33.24C467.572 33.66 467.409 34.0567 467.082 34.43C466.942 34.57 466.779 34.64 466.592 34.64C466.359 34.64 466.149 34.5233 465.962 34.29C465.822 34.01 465.869 33.73 466.102 33.45C466.149 33.4033 466.172 33.31 466.172 33.17C466.172 33.03 466.102 32.8667 465.962 32.68C465.822 32.4933 465.496 32.3067 464.982 32.12C464.656 31.98 464.306 31.91 463.932 31.91C463.512 31.91 463.069 32.0267 462.602 32.26C462.182 32.4467 461.786 32.7967 461.412 33.31C460.246 34.8967 459.172 36.3433 458.192 37.65C457.259 38.9567 456.279 40.2633 455.252 41.57C454.226 42.8767 452.989 44.3467 451.542 45.98C451.402 46.1667 451.216 46.26 450.982 46.26ZM475.412 54.17C474.666 54.17 473.966 54.0067 473.312 53.68C472.706 53.3067 472.402 52.77 472.402 52.07C472.402 51.6033 472.519 51.16 472.752 50.74C473.079 50.1333 473.592 49.2233 474.292 48.01C474.992 46.75 475.716 45.4433 476.462 44.09C477.209 42.69 477.839 41.4067 478.352 40.24C478.866 39.0267 479.122 38.14 479.122 37.58C479.122 36.5067 478.656 35.69 477.722 35.13C476.836 34.57 475.809 34.29 474.642 34.29C472.822 34.29 471.119 34.8033 469.532 35.83C467.946 36.81 466.499 38 465.192 39.4C463.886 40.8 462.696 42.1533 461.622 43.46C461.482 43.6467 461.296 43.74 461.062 43.74C460.829 43.74 460.619 43.6233 460.432 43.39C460.292 43.11 460.316 42.8533 460.502 42.62C461.716 41.1733 463.022 39.7033 464.422 38.21C465.822 36.7167 467.362 35.4567 469.042 34.43C470.769 33.4033 472.636 32.89 474.642 32.89C475.482 32.89 476.346 33.0533 477.232 33.38C478.166 33.66 478.936 34.15 479.542 34.85C480.196 35.55 480.522 36.46 480.522 37.58C480.522 38.28 480.242 39.26 479.682 40.52C479.169 41.7333 478.539 43.0633 477.792 44.51C477.046 45.91 476.322 47.24 475.622 48.5C474.922 49.76 474.386 50.74 474.012 51.44C473.872 51.6267 473.802 51.8133 473.802 52C473.802 52.3267 473.989 52.5367 474.362 52.63C474.736 52.7233 475.086 52.77 475.412 52.77C476.486 52.77 477.606 52.3033 478.772 51.37C479.939 50.4367 481.036 49.3633 482.062 48.15C483.089 46.89 483.882 45.8633 484.442 45.07C484.582 44.8833 484.746 44.79 484.932 44.79C485.166 44.79 485.376 44.9067 485.562 45.14C485.796 45.3733 485.796 45.63 485.562 45.91C484.909 46.8433 484.022 47.9633 482.902 49.27C481.829 50.5767 480.639 51.72 479.332 52.7C478.026 53.68 476.719 54.17 475.412 54.17ZM453.292 59.21C452.312 59.21 451.589 58.8833 451.122 58.23C450.702 57.5767 450.492 56.8767 450.492 56.13C450.492 55.5233 450.749 54.6833 451.262 53.61C451.776 52.5367 452.382 51.3933 453.082 50.18C453.829 48.9667 454.529 47.8233 455.182 46.75C455.836 45.6767 456.326 44.8133 456.652 44.16C456.792 43.88 457.002 43.74 457.282 43.74C457.516 43.74 457.702 43.8333 457.842 44.02C458.029 44.2067 458.052 44.44 457.912 44.72C457.632 45.28 457.166 46.0967 456.512 47.17C455.906 48.2433 455.229 49.3867 454.482 50.6C453.782 51.8133 453.176 52.9333 452.662 53.96C452.149 54.94 451.892 55.6633 451.892 56.13C451.892 57.25 452.359 57.81 453.292 57.81C454.226 57.81 455.066 57.39 455.812 56.55C456.559 55.6633 457.306 54.52 458.052 53.12C458.799 51.72 459.639 50.2033 460.572 48.57C461.506 46.9367 462.602 45.3267 463.862 43.74C465.122 42.1067 466.639 40.66 468.412 39.4C470.186 38.0933 472.309 37.1367 474.782 36.53H474.992C475.459 36.53 475.692 36.7633 475.692 37.23C475.692 37.5567 475.506 37.7667 475.132 37.86C472.752 38.4667 470.699 39.4 468.972 40.66C467.292 41.92 465.846 43.3667 464.632 45C463.419 46.5867 462.346 48.22 461.412 49.9C460.526 51.58 459.686 53.12 458.892 54.52C458.099 55.92 457.259 57.0633 456.372 57.95C455.486 58.79 454.459 59.21 453.292 59.21ZM471.842 59.28C470.396 59.28 469.112 58.8367 467.992 57.95C466.919 57.0633 466.382 55.78 466.382 54.1C466.382 53.9133 466.382 53.75 466.382 53.61C466.382 53.4233 466.406 53.2367 466.452 53.05C466.592 51.9767 466.942 50.7633 467.502 49.41C468.109 48.0567 468.786 46.7267 469.532 45.42C470.326 44.1133 471.026 43.0167 471.632 42.13C471.772 41.8967 471.959 41.78 472.192 41.78C472.426 41.78 472.612 41.8967 472.752 42.13C472.939 42.3633 472.939 42.6433 472.752 42.97C472.752 42.97 472.519 43.32 472.052 44.02C471.586 44.6733 471.072 45.5367 470.512 46.61C469.812 47.87 469.182 49.1767 468.622 50.53C468.062 51.8833 467.782 53.05 467.782 54.03C467.782 55.29 468.156 56.2467 468.902 56.9C469.696 57.5533 470.676 57.88 471.842 57.88C473.336 57.88 474.806 57.5767 476.252 56.97C477.699 56.3633 479.006 55.6167 480.172 54.73C480.266 54.6367 480.406 54.59 480.592 54.59C481.059 54.59 481.292 54.8233 481.292 55.29C481.292 55.5233 481.199 55.71 481.012 55.85C479.706 56.83 478.282 57.6467 476.742 58.3C475.202 58.9533 473.569 59.28 471.842 59.28ZM493.775 48.22C492.935 48.22 492.212 48.0333 491.605 47.66C491.325 47.52 491.185 47.3333 491.185 47.1C491.185 46.8667 491.279 46.68 491.465 46.54C491.699 46.3533 491.955 46.33 492.235 46.47C492.795 46.7033 493.309 46.82 493.775 46.82C494.755 46.82 495.829 46.54 496.995 45.98C498.162 45.3733 499.282 44.6033 500.355 43.67C501.429 42.7367 502.292 41.7333 502.945 40.66C503.645 39.5867 503.995 38.56 503.995 37.58C503.995 35.6667 503.015 34.71 501.055 34.71C498.862 34.71 496.809 35.2933 494.895 36.46C493.029 37.58 491.302 39.0033 489.715 40.73C488.175 42.41 486.799 44.1367 485.585 45.91C485.445 46.1433 485.259 46.26 485.025 46.26C484.792 46.26 484.605 46.1433 484.465 45.91C484.279 45.6767 484.279 45.42 484.465 45.14C485.679 43.3667 487.102 41.57 488.735 39.75C490.369 37.93 492.212 36.4133 494.265 35.2C496.365 33.94 498.629 33.31 501.055 33.31C502.315 33.31 503.342 33.6833 504.135 34.43C504.975 35.1767 505.395 36.2267 505.395 37.58C505.395 38.84 504.999 40.1 504.205 41.36C503.459 42.5733 502.479 43.7167 501.265 44.79C500.099 45.8167 498.839 46.6567 497.485 47.31C496.132 47.9167 494.895 48.22 493.775 48.22ZM492.165 54.73C490.905 54.73 489.739 54.4033 488.665 53.75C487.639 53.0967 487.125 51.9767 487.125 50.39C487.125 49.0833 487.592 47.6833 488.525 46.19C489.505 44.6967 490.695 43.2733 492.095 41.92C493.542 40.52 495.012 39.3067 496.505 38.28C497.999 37.2533 499.282 36.5767 500.355 36.25C500.402 36.25 500.425 36.25 500.425 36.25C500.472 36.2033 500.519 36.18 500.565 36.18C501.032 36.18 501.265 36.4367 501.265 36.95C501.265 37.23 501.102 37.44 500.775 37.58C499.749 37.9067 498.535 38.56 497.135 39.54C495.782 40.52 494.429 41.6633 493.075 42.97C491.769 44.23 490.672 45.5133 489.785 46.82C488.945 48.1267 488.525 49.3167 488.525 50.39C488.525 51.4167 488.852 52.1633 489.505 52.63C490.205 53.0967 491.092 53.33 492.165 53.33C494.919 53.33 497.695 52.6067 500.495 51.16C503.342 49.6667 505.769 47.6133 507.775 45C507.915 44.8133 508.079 44.72 508.265 44.72C508.545 44.72 508.755 44.86 508.895 45.14C509.082 45.3733 509.059 45.63 508.825 45.91C506.725 48.6167 504.159 50.7633 501.125 52.35C498.139 53.9367 495.152 54.73 492.165 54.73ZM491.815 58.93C490.602 58.93 489.365 58.7433 488.105 58.37C486.845 57.9967 485.795 57.39 484.955 56.55C484.069 55.6633 483.625 54.4967 483.625 53.05C483.625 52.5367 483.859 52.28 484.325 52.28C484.792 52.28 485.025 52.5367 485.025 53.05C485.025 53.9367 485.189 54.6367 485.515 55.15C485.889 55.6633 486.519 56.13 487.405 56.55C488.105 56.8767 488.852 57.1333 489.645 57.32C490.485 57.46 491.209 57.53 491.815 57.53C493.542 57.53 495.222 57.2033 496.855 56.55C498.535 55.8967 500.075 55.0567 501.475 54.03C501.569 53.9367 501.709 53.89 501.895 53.89C502.362 53.89 502.595 54.1233 502.595 54.59C502.595 54.8233 502.502 55.01 502.315 55.15C500.822 56.27 499.165 57.18 497.345 57.88C495.572 58.58 493.729 58.93 491.815 58.93ZM523.388 52.98C522.921 52.98 522.688 52.7933 522.688 52.42C522.688 52.1867 522.781 51.9767 522.968 51.79C524.134 50.53 524.881 49.1767 525.208 47.73C525.534 46.2833 525.698 44.8367 525.698 43.39C525.698 42.41 525.651 41.4767 525.558 40.59C525.511 39.7033 525.488 38.8867 525.488 38.14C525.488 36.8333 525.674 35.8767 526.048 35.27C526.188 35.0833 526.538 34.8733 527.098 34.64C527.658 34.4067 528.194 34.1033 528.708 33.73C529.221 33.31 529.478 32.7967 529.478 32.19C529.478 31.91 529.408 31.63 529.268 31.35C529.221 31.1633 529.058 30.9767 528.778 30.79C528.544 30.6033 528.194 30.51 527.728 30.51C527.261 30.51 526.654 30.6733 525.908 31C525.161 31.28 524.251 31.8167 523.178 32.61C521.544 33.8233 519.561 35.4567 517.228 37.51C514.941 39.5167 512.141 42.3167 508.828 45.91C508.688 46.05 508.524 46.12 508.338 46.12C508.104 46.12 507.918 46.0033 507.778 45.77C507.591 45.49 507.614 45.21 507.848 44.93C508.408 44.3233 509.248 43.39 510.368 42.13C511.534 40.8233 512.864 39.4233 514.358 37.93C515.898 36.4367 517.484 35.0133 519.118 33.66C520.751 32.3067 522.314 31.1867 523.808 30.3C525.348 29.4133 526.701 28.97 527.868 28.97C529.081 28.97 529.968 29.5767 530.528 30.79C530.621 30.9767 530.691 31.1867 530.738 31.42C530.784 31.6067 530.808 31.8167 530.808 32.05C530.808 32.89 530.481 33.7067 529.828 34.5C529.221 35.2933 528.311 35.8767 527.098 36.25C526.958 36.67 526.888 37.3233 526.888 38.21C526.888 39.0033 526.911 39.8433 526.958 40.73C527.051 41.6167 527.098 42.2933 527.098 42.76C527.144 44.0667 527.051 45.4433 526.818 46.89C526.584 48.29 526.071 49.69 525.278 51.09C526.631 50.4833 527.938 49.69 529.198 48.71C530.504 47.6833 531.671 46.4467 532.698 45C532.838 44.8133 533.001 44.72 533.188 44.72C533.421 44.72 533.608 44.86 533.748 45.14C533.934 45.42 533.934 45.6767 533.748 45.91C532.861 47.17 531.764 48.3367 530.458 49.41C529.151 50.4833 527.844 51.3467 526.538 52C525.278 52.6533 524.228 52.98 523.388 52.98ZM514.778 55.15C513.658 55.1033 512.701 54.6833 511.908 53.89C511.161 53.0967 510.788 52.0933 510.788 50.88C510.788 49.9467 511.021 49.0133 511.488 48.08C512.048 46.82 512.888 45.4433 514.008 43.95C515.174 42.41 516.481 40.94 517.928 39.54C519.421 38.0933 520.891 36.9033 522.338 35.97C522.524 35.8767 522.664 35.83 522.758 35.83C523.178 35.83 523.388 36.0633 523.388 36.53C523.388 36.7633 523.271 36.95 523.038 37.09C521.684 37.93 520.308 39.05 518.908 40.45C517.554 41.8033 516.341 43.2267 515.268 44.72C514.194 46.1667 513.378 47.4733 512.818 48.64C512.631 49.06 512.491 49.4567 512.398 49.83C512.304 50.2033 512.258 50.5533 512.258 50.88C512.258 51.7667 512.538 52.4667 513.098 52.98C513.658 53.4933 514.311 53.75 515.058 53.75C516.131 53.75 517.228 53.2367 518.348 52.21C519.468 51.1367 520.191 49.41 520.518 47.03C520.751 45.4433 520.891 44.2767 520.938 43.53C520.984 42.7833 521.031 41.8733 521.078 40.8C521.078 40.3333 521.311 40.1 521.778 40.1C522.244 40.1 522.478 40.3333 522.478 40.8C522.431 41.9667 522.314 43.39 522.128 45.07C521.988 46.7033 521.661 48.3133 521.148 49.9C520.634 51.4867 519.864 52.7933 518.838 53.82C517.811 54.8 516.458 55.2433 514.778 55.15ZM514.848 59.42C514.288 59.42 513.564 59.3267 512.678 59.14C511.791 59 510.904 58.72 510.018 58.3C509.131 57.88 508.384 57.2733 507.778 56.48C507.171 55.6867 506.868 54.6833 506.868 53.47C506.868 53.2833 506.868 53.12 506.868 52.98C506.868 52.7933 506.891 52.6067 506.938 52.42C506.984 52.0467 507.218 51.86 507.638 51.86C508.104 51.86 508.338 52.07 508.338 52.49C508.338 52.6767 508.314 52.8633 508.268 53.05C508.268 53.19 508.268 53.3067 508.268 53.4C508.268 54.5667 508.641 55.5 509.388 56.2C510.134 56.8533 511.021 57.32 512.048 57.6C513.121 57.88 514.078 58.02 514.918 58.02C517.018 58.02 518.931 57.7633 520.658 57.25C522.431 56.69 523.948 56.0367 525.208 55.29C526.514 54.5433 527.518 53.8433 528.218 53.19C528.358 53.05 528.521 52.98 528.708 52.98C528.988 52.98 529.198 53.12 529.338 53.4C529.524 53.68 529.478 53.9367 529.198 54.17C528.451 54.87 527.354 55.64 525.908 56.48C524.508 57.2733 522.874 57.9733 521.008 58.58C519.141 59.14 517.088 59.42 514.848 59.42Z" fill="#0C9B00"/>
</g>
<defs>
<clipPath id="clip0_33_242">
<rect width="565" height="80" fill="white"/>
</clipPath>
</defs>
</svg>
